<?xml version="1.0" encoding="iso-8859-1"?>
<!-- Generator: Adobe Illustrator 19.1.0, SVG Export Plug-In . SVG Version: 6.00 Build 0)  -->
<svg version="1.2" baseProfile="tiny" id="Key" xmlns="http://www.w3.org/2000/svg" xmlns:xlink="http://www.w3.org/1999/xlink"
	 x="0px" y="0px" viewBox="0 0 148 72" xml:space="preserve">
<g id="Background_Image_1_">
	<g id="M_5_">
		<g>
			<path fill="#FFFFFF" d="M13,68.5c-5.238,0-9.5-4.262-9.5-9.5V13c0-5.238,4.262-9.5,9.5-9.5h46c5.238,0,9.5,4.262,9.5,9.5v46
				c0,5.238-4.262,9.5-9.5,9.5H13z"/>
			<path fill="#4285F4" d="M59,6c3.86,0,7,3.14,7,7v46c0,3.86-3.14,7-7,7H13c-3.86,0-7-3.14-7-7V13c0-3.86,3.14-7,7-7H59 M59,1H13
				C6.4,1,1,6.4,1,13v46c0,6.6,5.4,12,12,12h46c6.6,0,12-5.4,12-12V13C71,6.4,65.6,1,59,1L59,1z"/>
		</g>
		<g>
			<path fill="#4285F4" d="M31.896,39.674v0.598c0.044,2.004,0.25,3.413,0.619,4.228c0.369,0.814,1.158,1.222,2.37,1.222
				c1.2,0,1.992-0.445,2.377-1.336c0.231-0.527,0.347-1.418,0.347-2.672V23.59h5.414v18.035c0,2.203-0.373,3.949-1.117,5.238
				c-1.261,2.18-3.535,3.27-6.823,3.27c-3.289,0-5.495-0.882-6.618-2.646c-1.123-1.764-1.684-4.169-1.684-7.216v-0.598H31.896z"/>
		</g>
	</g>
	<g id="M_4_">
		<g>
			<path fill="#FFFFFF" d="M89,68.5c-5.238,0-9.5-4.262-9.5-9.5V13c0-5.238,4.262-9.5,9.5-9.5h46c5.238,0,9.5,4.262,9.5,9.5v46
				c0,5.238-4.262,9.5-9.5,9.5H89z"/>
			<path fill="#4285F4" d="M135,6c3.86,0,7,3.14,7,7v46c0,3.86-3.14,7-7,7H89c-3.86,0-7-3.14-7-7V13c0-3.86,3.14-7,7-7H135 M135,1
				H89c-6.6,0-12,5.4-12,12v46c0,6.6,5.4,12,12,12h46c6.6,0,12-5.4,12-12V13C147,6.4,141.6,1,135,1L135,1z"/>
		</g>
		<g>
			<path fill="#4285F4" d="M104.063,23.59h5.414v21.252h12.938V49.5h-18.352V23.59z"/>
		</g>
	</g>
</g>
</svg>
