<?xml version="1.0" encoding="iso-8859-1"?>
<!-- Generator: Adobe Illustrator 19.1.0, SVG Export Plug-In . SVG Version: 6.00 Build 0)  -->
<svg version="1.2" baseProfile="tiny" id="Key" xmlns="http://www.w3.org/2000/svg" xmlns:xlink="http://www.w3.org/1999/xlink"
	 x="0px" y="0px" viewBox="0 0 148 72" xml:space="preserve">
<g id="Flashlight_Image">
	<g id="M">
		<path fill="#4285F4" d="M59,71H13C6.4,71,1,65.6,1,59V13C1,6.4,6.4,1,13,1h46c6.6,0,12,5.4,12,12v46C71,65.6,65.6,71,59,71z"/>
		<g>
			<path fill="#FFFFFF" d="M25.831,23.09h5.326v10.676L41.168,23.09h6.996L37.531,33.747L48.709,49h-6.961l-7.983-11.31
				l-2.607,2.644V49h-5.326V23.09z"/>
		</g>
	</g>
	<g id="M_3_">
		<path fill="#4285F4" d="M135,71H89c-6.6,0-12-5.4-12-12V13c0-6.6,5.4-12,12-12h46c6.6,0,12,5.4,12,12v46C147,65.6,141.6,71,135,71
			z"/>
		<g>
			<path fill="#FFFFFF" d="M114.681,49h-5.379V23.09h5.379V49z"/>
		</g>
	</g>
</g>
</svg>
