<?xml version="1.0" encoding="iso-8859-1"?>
<!-- Generator: Adobe Illustrator 19.1.0, SVG Export Plug-In . SVG Version: 6.00 Build 0)  -->
<svg version="1.2" baseProfile="tiny" id="Key" xmlns="http://www.w3.org/2000/svg" xmlns:xlink="http://www.w3.org/1999/xlink"
	 x="0px" y="0px" viewBox="0 0 148 72" xml:space="preserve">
<g id="Page">
	<g id="M_7_">
		<path fill="#4285F4" d="M59,71H13C6.4,71,1,65.6,1,59V13C1,6.4,6.4,1,13,1h46c6.6,0,12,5.4,12,12v46C71,65.6,65.6,71,59,71z"/>
		<g>
			<path fill="#FFFFFF" d="M25.655,23.09h5.676l10.285,18.066V23.09h5.045V49h-5.413L30.7,30.616V49h-5.045V23.09z"/>
		</g>
	</g>
	<g id="M_6_">
		<path fill="#4285F4" d="M135,71H89c-6.6,0-12-5.4-12-12V13c0-6.6,5.4-12,12-12h46c6.6,0,12,5.4,12,12v46C147,65.6,141.6,71,135,71
			z"/>
		<g>
			<path fill="#FFFFFF" d="M116.936,23.09h7.791V49h-5.045V31.475c0-0.504,0.006-1.21,0.018-2.118s0.018-1.608,0.018-2.101
				L114.807,49h-5.262l-4.875-21.744c0,0.492,0.006,1.192,0.018,2.101s0.018,1.614,0.018,2.118V49H99.66V23.09h7.878l4.716,20.373
				L116.936,23.09z"/>
		</g>
	</g>
</g>
</svg>
